<svg xmlns="http://www.w3.org/2000/svg" width="1200" height="675" viewBox="0 0 1200 675" role="img" aria-labelledby="title desc">
  <title id="title">负责的闭环</title><desc id="desc">每踩一个坑，就把它垫成下一步台阶</desc>
  <defs>
    <filter id="rough"><feTurbulence type="fractalNoise" baseFrequency="0.015" numOctaves="2" seed="5" result="noise"/><feDisplacementMap in="SourceGraphic" in2="noise" scale="1.6"/></filter>
    <pattern id="grain" width="28" height="28" patternUnits="userSpaceOnUse"><circle cx="4" cy="7" r="1" fill="#3D2D32" opacity=".12"/><circle cx="20" cy="18" r=".8" fill="#B34E68" opacity=".12"/><path d="M10 24 l3 -1" stroke="#3D2D32" stroke-width=".7" opacity=".1"/></pattern>
  </defs>
  <style>
    .sketch{filter:url(#rough)}
    .kicker{font:700 16px -apple-system,BlinkMacSystemFont,"PingFang SC","Microsoft YaHei",sans-serif;letter-spacing:3px}
    .title{font:700 42px "Kaiti SC",STKaiti,"KaiTi","PingFang SC",sans-serif}
    .subtitle{font:400 19px "Kaiti SC",STKaiti,"KaiTi","PingFang SC",sans-serif}
    .note{font:500 20px "Kaiti SC",STKaiti,"KaiTi","PingFang SC",sans-serif;fill:#3D2D32}
    .sticky{font:700 18px "Kaiti SC",STKaiti,"KaiTi","PingFang SC",sans-serif;fill:#3D2D32}
    .bubble{font:600 18px "Kaiti SC",STKaiti,"KaiTi","PingFang SC",sans-serif;fill:#3D2D32}
    .tiny{font:600 15px "Kaiti SC",STKaiti,"KaiTi","PingFang SC",sans-serif;fill:#fff}
    .face{font:700 18px "Kaiti SC",STKaiti,"KaiTi",sans-serif;fill:#3D2D32}
    .bigq{font:800 82px "Kaiti SC",STKaiti,"KaiTi",sans-serif;fill:#B34E68}
  </style>
  <rect width="1200" height="675" rx="28" fill="#FFF5F7"/>
  <g opacity=".5"><path d="M30 115 Q260 90 500 112 T1170 100" stroke="#F0C5CF" stroke-width="3" fill="none"/><path d="M45 585 Q350 610 650 585 T1160 595" stroke="#F0C5CF" stroke-width="3" fill="none"/></g>
  <path d="M24 30 Q310 20 590 28 T1174 25 L1180 640 Q910 654 610 646 T25 650Z" fill="none" stroke="#3D2D32" stroke-width="3" stroke-dasharray="9 7" opacity=".45" class="sketch"/>
  <text x="68" y="70" class="kicker" fill="#B34E68">小何的产品手记  ·  06/05</text>
  <text x="68" y="123" class="title" fill="#3D2D32">负责的闭环</text>
  <text x="68" y="156" class="subtitle" fill="#3D2D32" opacity=".72">每踩一个坑，就把它垫成下一步台阶</text>
  <g transform="translate(0 32)"><path d="M90 535 Q260 522 430 536 T770 534 T1110 538" stroke="#3D2D32" stroke-width="3" fill="none" stroke-linecap="round" stroke-linejoin="round" stroke-dasharray="8 10"/><path d="M280 520 h200 v-100 h190 v-100 h190 v-100 h170" fill="none" stroke="#3D2D32" stroke-width="8" class="sketch"/><g class="sketch" transform="translate(340 410) scale(.63) translate(-340 -410)">
      <circle cx="340" cy="226" r="34" fill="#FFD9BC" stroke="#302A26" stroke-width="4"/>
      <path d="M309 217 q30 -45 62 0 q-13 -10 -20 -26 q-20 18 -42 20" fill="#43352F" stroke="#302A26" stroke-width="3"/>
      <text x="340" y="236" text-anchor="middle" class="face">:)</text>
      <path d="M340 262 C332 300 346 344 340 374" stroke="#302A26" stroke-width="5" fill="#B34E68"/>
      <path d="M306 271 Q282 318 266 335" stroke="#302A26" stroke-width="5" fill="none"/>
      <path d="M374 271 Q395 304 404 330" stroke="#302A26" stroke-width="5" fill="none"/>
      <path d="M336 372 L306 410" stroke="#302A26" stroke-width="6"/>
      <path d="M344 372 L374 410" stroke="#302A26" stroke-width="6"/>
      <path d="M292 410 h30 M358 410 h30" stroke="#302A26" stroke-width="6" stroke-linecap="round"/>
      <rect x="363" y="292" width="54" height="68" rx="5" fill="#fff" stroke="#302A26" stroke-width="3" transform="rotate(7 385 326)"/>
    </g><g class="sketch" transform="translate(545 315) scale(.6) translate(-545 -315)">
      <circle cx="545" cy="131" r="34" fill="#FFD9BC" stroke="#302A26" stroke-width="4"/>
      <path d="M514 122 q30 -45 62 0 q-13 -10 -20 -26 q-20 18 -42 20" fill="#43352F" stroke="#302A26" stroke-width="3"/>
      <text x="545" y="141" text-anchor="middle" class="face">:)</text>
      <path d="M545 167 C537 205 551 249 545 279" stroke="#302A26" stroke-width="5" fill="#507A70"/>
      <path d="M511 176 Q487 223 471 240" stroke="#302A26" stroke-width="5" fill="none"/>
      <path d="M579 176 Q600 209 609 235" stroke="#302A26" stroke-width="5" fill="none"/>
      <path d="M541 277 L511 315" stroke="#302A26" stroke-width="6"/>
      <path d="M549 277 L579 315" stroke="#302A26" stroke-width="6"/>
      <path d="M497 315 h30 M563 315 h30" stroke="#302A26" stroke-width="6" stroke-linecap="round"/>
      
    </g><g class="sketch" transform="translate(735 215) scale(.58) translate(-735 -215)">
      <circle cx="735" cy="31" r="34" fill="#FFD9BC" stroke="#302A26" stroke-width="4"/>
      <path d="M704 22 q30 -45 62 0 q-13 -10 -20 -26 q-20 18 -42 20" fill="#43352F" stroke="#302A26" stroke-width="3"/>
      <text x="735" y="41" text-anchor="middle" class="face">:)</text>
      <path d="M735 67 C727 105 741 149 735 179" stroke="#302A26" stroke-width="5" fill="#B34E68"/>
      <path d="M701 76 Q677 123 661 140" stroke="#302A26" stroke-width="5" fill="none"/>
      <path d="M769 76 Q790 109 799 135" stroke="#302A26" stroke-width="5" fill="none"/>
      <path d="M731 177 L701 215" stroke="#302A26" stroke-width="6"/>
      <path d="M739 177 L769 215" stroke="#302A26" stroke-width="6"/>
      <path d="M687 215 h30 M753 215 h30" stroke="#302A26" stroke-width="6" stroke-linecap="round"/>
      
    </g><g transform="rotate(-5 335.0 299.0)" class="sketch"><rect x="260" y="255" width="150" height="88" rx="5" fill="#F0C5CF" stroke="#302A26" stroke-width="3"/><path d="M382 255 l28 28 h-28z" fill="#fff" opacity=".6"/><text x="335.0" y="307.0" class="sticky" text-anchor="middle">调研</text></g><g transform="rotate(3 565.0 224.0)" class="sketch"><rect x="490" y="180" width="150" height="88" rx="5" fill="#FFE4A8" stroke="#302A26" stroke-width="3"/><path d="M612 180 l28 28 h-28z" fill="#fff" opacity=".6"/><text x="565.0" y="232.0" class="sticky" text-anchor="middle">交付</text></g><g transform="rotate(-3 835.0 159.0)" class="sketch"><rect x="760" y="115" width="150" height="88" rx="5" fill="#D7EFE5" stroke="#302A26" stroke-width="3"/><path d="M882 115 l28 28 h-28z" fill="#fff" opacity=".6"/><text x="835.0" y="167.0" class="sticky" text-anchor="middle">复盘再出发</text></g><g class="sketch"><rect x="170" y="125" width="300" height="76" rx="25" fill="#fff" stroke="#B34E68" stroke-width="3"/><path d="M206 193 l-22 28 l42 -20" stroke="#B34E68" stroke-width="3" fill="#fff" stroke-linecap="round" stroke-linejoin="round"/><text x="320.0" y="172" class="bubble" text-anchor="middle">每个坑，都能垫成下一步</text></g></g>
  <text x="1120" y="625" text-anchor="end" class="subtitle" fill="#B34E68">日拱一卒 · 功不唐捐</text>
  <rect width="1200" height="675" rx="28" fill="url(#grain)" pointer-events="none"/>
</svg>