<svg xmlns="http://www.w3.org/2000/svg" width="1200" height="675" viewBox="0 0 1200 675" role="img" aria-labelledby="title desc">
  <title id="title">AI 的边界</title><desc id="desc">线的这边是效率，线的那边是人的责任</desc>
  <defs>
    <filter id="rough"><feTurbulence type="fractalNoise" baseFrequency="0.015" numOctaves="2" seed="4" result="noise"/><feDisplacementMap in="SourceGraphic" in2="noise" scale="1.6"/></filter>
    <pattern id="grain" width="28" height="28" patternUnits="userSpaceOnUse"><circle cx="4" cy="7" r="1" fill="#293747" opacity=".12"/><circle cx="20" cy="18" r=".8" fill="#3D72B4" opacity=".12"/><path d="M10 24 l3 -1" stroke="#293747" stroke-width=".7" opacity=".1"/></pattern>
  </defs>
  <style>
    .sketch{filter:url(#rough)}
    .kicker{font:700 16px -apple-system,BlinkMacSystemFont,"PingFang SC","Microsoft YaHei",sans-serif;letter-spacing:3px}
    .title{font:700 42px "Kaiti SC",STKaiti,"KaiTi","PingFang SC",sans-serif}
    .subtitle{font:400 19px "Kaiti SC",STKaiti,"KaiTi","PingFang SC",sans-serif}
    .note{font:500 20px "Kaiti SC",STKaiti,"KaiTi","PingFang SC",sans-serif;fill:#293747}
    .sticky{font:700 18px "Kaiti SC",STKaiti,"KaiTi","PingFang SC",sans-serif;fill:#293747}
    .bubble{font:600 18px "Kaiti SC",STKaiti,"KaiTi","PingFang SC",sans-serif;fill:#293747}
    .tiny{font:600 15px "Kaiti SC",STKaiti,"KaiTi","PingFang SC",sans-serif;fill:#fff}
    .face{font:700 18px "Kaiti SC",STKaiti,"KaiTi",sans-serif;fill:#293747}
    .bigq{font:800 82px "Kaiti SC",STKaiti,"KaiTi",sans-serif;fill:#3D72B4}
  </style>
  <rect width="1200" height="675" rx="28" fill="#F3F8FF"/>
  <g opacity=".5"><path d="M30 115 Q260 90 500 112 T1170 100" stroke="#C8DCF5" stroke-width="3" fill="none"/><path d="M45 585 Q350 610 650 585 T1160 595" stroke="#C8DCF5" stroke-width="3" fill="none"/></g>
  <path d="M24 30 Q310 20 590 28 T1174 25 L1180 640 Q910 654 610 646 T25 650Z" fill="none" stroke="#293747" stroke-width="3" stroke-dasharray="9 7" opacity=".45" class="sketch"/>
  <text x="68" y="70" class="kicker" fill="#3D72B4">小何的产品手记  ·  05/04</text>
  <text x="68" y="123" class="title" fill="#293747">AI 的边界</text>
  <text x="68" y="156" class="subtitle" fill="#293747" opacity=".72">线的这边是效率，线的那边是人的责任</text>
  <g transform="translate(0 32)"><path d="M90 535 Q260 522 430 536 T770 534 T1110 538" stroke="#293747" stroke-width="3" fill="none" stroke-linecap="round" stroke-linejoin="round" stroke-dasharray="8 10"/><path d="M590 150 C540 250 650 360 590 530" stroke="#3D72B4" stroke-width="5" stroke-dasharray="12 10"/><text x="590" y="120" class="tiny" text-anchor="middle">边界线</text><g class="sketch">
      <rect x="276" y="338" width="108" height="92" rx="24" fill="#EAF3FF" stroke="#302A26" stroke-width="4"/>
      <path d="M330 338 v-30 m-10 0 h20" stroke="#302A26" stroke-width="4"/>
      <circle cx="306" cy="379" r="8" fill="#D97857"/><circle cx="354" cy="379" r="8" fill="#D97857"/>
      <path d="M308 404 q22 18 44 0" stroke="#302A26" stroke-width="3" fill="none"/>
      <rect x="288" y="434" width="84" height="74" rx="15" fill="#D97857" opacity=".82" stroke="#302A26" stroke-width="4"/>
      <path d="M288 454 l-42 -25 m126 25 l42 -25 M310 510 l-18 24 m58 -24 18 24" stroke="#302A26" stroke-width="5"/>
    </g><g class="sketch" transform="translate(850 530) scale(.9) translate(-850 -530)">
      <circle cx="850" cy="346" r="34" fill="#FFD9BC" stroke="#302A26" stroke-width="4"/>
      <path d="M819 337 q30 -45 62 0 q-13 -10 -20 -26 q-20 18 -42 20" fill="#43352F" stroke="#302A26" stroke-width="3"/>
      <text x="850" y="356" text-anchor="middle" class="face">:|</text>
      <path d="M850 382 C858 420 844 464 850 494" stroke="#302A26" stroke-width="5" fill="#3D72B4"/>
      <path d="M816 391 Q792 438 776 455" stroke="#302A26" stroke-width="5" fill="none"/>
      <path d="M884 391 Q795 424 786 450" stroke="#302A26" stroke-width="5" fill="none"/>
      <path d="M846 492 L816 530" stroke="#302A26" stroke-width="6"/>
      <path d="M854 492 L884 530" stroke="#302A26" stroke-width="6"/>
      <path d="M802 530 h30 M868 530 h30" stroke="#302A26" stroke-width="6" stroke-linecap="round"/>
      <rect x="783" y="412" width="54" height="68" rx="5" fill="#fff" stroke="#302A26" stroke-width="3" transform="rotate(-7 805 446)"/>
    </g><g transform="rotate(-4 245.0 294.0)" class="sketch"><rect x="170" y="250" width="150" height="88" rx="5" fill="#C8DCF5" stroke="#302A26" stroke-width="3"/><path d="M292 250 l28 28 h-28z" fill="#fff" opacity=".6"/><text x="245.0" y="302.0" class="sticky" text-anchor="middle">效率</text></g><g transform="rotate(3 750.0 234.0)" class="sketch"><rect x="675" y="190" width="150" height="88" rx="5" fill="#FFE4A8" stroke="#302A26" stroke-width="3"/><path d="M797 190 l28 28 h-28z" fill="#fff" opacity=".6"/><text x="750.0" y="242.0" class="sticky" text-anchor="middle">判断</text></g><g transform="rotate(-3 895.0 334.0)" class="sketch"><rect x="820" y="290" width="150" height="88" rx="5" fill="#D7EFE5" stroke="#302A26" stroke-width="3"/><path d="M942 290 l28 28 h-28z" fill="#fff" opacity=".6"/><text x="895.0" y="342.0" class="sticky" text-anchor="middle">共情</text></g><g transform="rotate(4 765.0 459.0)" class="sketch"><rect x="690" y="415" width="150" height="88" rx="5" fill="#fff" stroke="#302A26" stroke-width="3"/><path d="M812 415 l28 28 h-28z" fill="#fff" opacity=".6"/><text x="765.0" y="467.0" class="sticky" text-anchor="middle">负责</text></g><g class="sketch"><rect x="135" y="130" width="300" height="76" rx="25" fill="#fff" stroke="#D97857" stroke-width="3"/><path d="M171 198 l-22 28 l42 -20" stroke="#D97857" stroke-width="3" fill="#fff" stroke-linecap="round" stroke-linejoin="round"/><text x="285.0" y="177" class="bubble" text-anchor="middle">我可以建议，但不能替你负责</text></g></g>
  <text x="1120" y="625" text-anchor="end" class="subtitle" fill="#3D72B4">日拱一卒 · 功不唐捐</text>
  <rect width="1200" height="675" rx="28" fill="url(#grain)" pointer-events="none"/>
</svg>